<svg xmlns="http://www.w3.org/2000/svg" viewBox="0 0 100 100" width="100" height="100">
  <circle cx="50" cy="50" r="46" fill="#ffffff" stroke="#16181d" stroke-width="2.2"/>
  <g stroke="#16181d" stroke-width="2.4" stroke-linecap="round">
    <line x1="50" y1="37" x2="50" y2="5"/>
    <line x1="62.36" y1="45.98" x2="92.8" y2="36.09"/>
    <line x1="57.64" y1="60.52" x2="76.45" y2="86.41"/>
    <line x1="42.36" y1="60.52" x2="23.55" y2="86.41"/>
    <line x1="37.64" y1="45.98" x2="7.2" y2="36.09"/>
  </g>
  <polygon points="50,37 62.36,45.98 57.64,60.52 42.36,60.52 37.64,45.98" fill="#16181d"/>
  <polygon points="75.86,14.4 79.5,25.58 69.98,32.49 60.47,25.58 64.11,14.4" fill="#16181d"/>
  <polygon points="91.85,63.6 82.34,70.51 72.83,63.6 76.46,52.42 88.21,52.42" fill="#16181d"/>
  <polygon points="50,94 40.49,87.09 44.12,75.91 55.88,75.91 59.51,87.09" fill="#16181d"/>
  <polygon points="8.15,63.6 11.79,52.42 23.54,52.42 27.17,63.6 17.66,70.51" fill="#16181d"/>
  <polygon points="24.14,14.4 35.89,14.4 39.53,25.58 30.02,32.49 20.5,25.58" fill="#16181d"/>
</svg>
